<?xml version="1.0" encoding="utf-8"?>
<!-- Svg Vector Icons : http://www.onlinewebfonts.com/icon -->
<!DOCTYPE svg PUBLIC "-//W3C//DTD SVG 1.1//EN" "http://www.w3.org/Graphics/SVG/1.1/DTD/svg11.dtd">
<svg version="1.1" xmlns="http://www.w3.org/2000/svg" xmlns:xlink="http://www.w3.org/1999/xlink" x="0px" y="0px" viewBox="0 0 1000 1000" enable-background="new 0 0 1000 1000" xml:space="preserve">
<metadata> Svg Vector Icons : http://www.onlinewebfonts.com/icon </metadata>
<g><path d="M54.5,143.6h890.9c26.7,0,44.5-17.8,44.5-44.5s-17.8-44.5-44.5-44.5H54.5C27.8,54.5,10,72.4,10,99.1S27.8,143.6,54.5,143.6z"/><path d="M945.5,321.8H54.5c-26.7,0-44.5,17.8-44.5,44.5s17.8,44.5,44.5,44.5h890.9c26.7,0,44.5-17.8,44.5-44.5S972.2,321.8,945.5,321.8z"/><path d="M410.9,589.1H54.5c-26.7,0-44.5,17.8-44.5,44.5s17.8,44.5,44.5,44.5h356.4c26.7,0,44.5-17.8,44.5-44.5S437.6,589.1,410.9,589.1z"/><path d="M410.9,856.4H54.5c-26.7,0-44.5,17.8-44.5,44.5c0,26.7,17.8,44.5,44.5,44.5h356.4c26.7,0,44.5-17.8,44.5-44.5C455.5,874.2,437.6,856.4,410.9,856.4z"/><path d="M883.1,794c26.7-35.6,44.5-71.3,44.5-115.8c0-98-80.2-178.2-178.2-178.2c-98,0-178.2,80.2-178.2,178.2c0,98,80.2,178.2,178.2,178.2c17.8,0,44.5,0,62.4-8.9l89.1,89.1c8.9,8.9,17.8,8.9,35.6,8.9c17.8,0,26.7,0,35.6-8.9c17.8-17.8,17.8-44.5,0-62.4L883.1,794z M660.4,678.2c0-53.5,35.6-89.1,89.1-89.1c53.5,0,89.1,35.6,89.1,89.1s-35.6,89.1-89.1,89.1C696,767.3,660.4,731.6,660.4,678.2z"/></g>
</svg>