<?xml version="1.0" encoding="utf-8"?>
<!-- Generator: Adobe Illustrator 16.0.0, SVG Export Plug-In . SVG Version: 6.00 Build 0)  -->
<!DOCTYPE svg PUBLIC "-//W3C//DTD SVG 1.1//EN" "http://www.w3.org/Graphics/SVG/1.1/DTD/svg11.dtd">
<svg version="1.1" id="Layer_1" focusable="false" xmlns="http://www.w3.org/2000/svg" xmlns:xlink="http://www.w3.org/1999/xlink"
	 x="0px" y="0px" width="16px" height="16px" viewBox="0 0 16 16" enable-background="new 0 0 16 16" xml:space="preserve">
<path fill="#901C1C" d="M10.085,8l3.128-3.127c0.383-0.384,0.383-1.006,0-1.39l-0.695-0.695c-0.385-0.383-1.006-0.383-1.391,0
	L8,5.915L4.873,2.788c-0.384-0.383-1.006-0.383-1.39,0L2.788,3.483c-0.383,0.384-0.383,1.006,0,1.39L5.915,8l-3.127,3.127
	c-0.383,0.384-0.383,1.006,0,1.391l0.695,0.695c0.384,0.383,1.006,0.383,1.39,0L8,10.085l3.127,3.128
	c0.384,0.383,1.006,0.383,1.391,0l0.695-0.695c0.383-0.385,0.383-1.006,0-1.391L10.085,8z"/>
</svg>
