<?xml version="1.0" encoding="utf-8"?>
<!-- Svg Vector Icons : http://www.onlinewebfonts.com/icon -->
<!DOCTYPE svg PUBLIC "-//W3C//DTD SVG 1.1//EN" "http://www.w3.org/Graphics/SVG/1.1/DTD/svg11.dtd">
<svg version="1.1" xmlns="http://www.w3.org/2000/svg" xmlns:xlink="http://www.w3.org/1999/xlink" x="0px" y="0px" viewBox="0 0 1000 1000" enable-background="new 0 0 1000 1000" xml:space="preserve">
<metadata> Svg Vector Icons : http://www.onlinewebfonts.com/icon </metadata>
<g><path d="M510.5,529.2h344.9v-24.5H510.5V327.3c80.6-7.6,144-75.7,144-158.3c0-87.7-71.3-159-159-159c-87.7,0-159,71.3-159,159c0,84.5,66.2,153.8,149.5,158.7v176.9H144.6v24.5H486V740L248.3,988.8l33.9,1.2l215.8-226l214.7,224.8h33.9L510.3,741.3h0.3V529.2L510.5,529.2z M361,169c0-74.2,60.3-134.5,134.5-134.5C569.6,34.5,630,94.8,630,169c0,74.2-60.3,134.5-134.5,134.5C421.3,303.5,361,243.2,361,169z"/></g>
</svg>