<?xml version="1.0" encoding="utf-8"?>
<!-- Generator: Adobe Illustrator 16.0.0, SVG Export Plug-In . SVG Version: 6.00 Build 0)  -->
<!DOCTYPE svg PUBLIC "-//W3C//DTD SVG 1.1//EN" "http://www.w3.org/Graphics/SVG/1.1/DTD/svg11.dtd">
<svg version="1.1" id="Layer_1" xmlns="http://www.w3.org/2000/svg" xmlns:xlink="http://www.w3.org/1999/xlink" x="0px" y="0px"
	 width="512px" height="512px" viewBox="0 0 512 512" enable-background="new 0 0 512 512" xml:space="preserve">
<title>ionicons-v5_logos</title>
<path fill="#3399CC" stroke="#000000" stroke-miterlimit="10" d="M259,271.3L226.2,367h-0.1l-25.4,73.1c1.8,0.5,3.5,0.9,5.3,1.4h0.3
	c16.148,4.306,32.788,6.491,49.5,6.5c8.335,0.062,16.661-0.54,24.9-1.8c11.024-1.382,21.902-3.759,32.5-7.101l0,0
	c2.6-0.8,5.2-1.699,7.8-2.6c-2.8-6-8.8-19.3-9.1-19.9L259,271.3z"/>
<path fill="#3399CC" stroke="#000000" stroke-miterlimit="10" d="M80.8,180.5C70.8,203.1,64,230.9,64,256c0,6.3,0.3,12.6,0.9,18.8
	c6.9,71.2,52.9,131,116.1,157.9c2.6,1.1,5.3,2.2,8,3.2L96,180.6C88,180.3,86.5,180.8,80.8,180.5z"/>
<path fill="#3399CC" stroke="#000000" stroke-miterlimit="10" d="M430.2,175.4c-4.303-9.262-9.353-18.158-15.101-26.6
	c-1.6-2.4-3.399-4.8-5.1-7.2c-21.668-29.083-51.093-51.471-84.9-64.6c-22.05-8.625-45.522-13.035-69.2-13
	c-58.098,0.001-113.054,26.376-149.4,71.7c-6.5,8.058-12.352,16.618-17.5,25.6c14.2,0.1,31.8,0.1,33.8,0.1c18.1,0,46-2.2,46-2.2
	c9.4-0.6,10.4,13.1,1.1,14.2c0,0-9.4,1.1-19.8,1.6L213,362l37.8-113.3L224,175.1c-9.4-0.5-18.1-1.6-18.1-1.6
	c-9.4-0.5-8.2-14.8,1-14.2c0,0,28.5,2.2,45.5,2.2c18.1,0,46-2.2,46-2.2c9.3-0.6,10.5,13.1,1.1,14.2c0,0-9.3,1.1-19.7,1.6l62.3,185.6
	L359.4,303.1c8.699-22.399,13.1-40.899,13.1-55.7c0-21.3-7.7-36.1-14.3-47.6c-8.7-14.3-16.9-26.3-16.9-40.4c0-15.9,12-30.7,29-30.7
	h2.2c26.2-0.7,34.8,25.3,35.9,43v0.6c0.399,7.2,0.1,12.5,0.1,18.8c0,17.4-3.3,37.1-13.1,61.8l-39,112.8L334.1,431.4
	c1.801-0.801,3.5-1.601,5.301-2.5c56.699-27.4,98-82,106.699-146.7c1.29-8.606,1.926-17.298,1.9-26
	C448.038,228.29,441.962,200.71,430.2,175.4z"/>
<path fill="#3399CC" d="M256,48c114.908,0.059,208.012,93.259,207.953,208.167C463.91,339.694,413.919,415.099,337,447.66
	C231.149,492.396,109.075,442.851,64.34,337C19.605,231.149,69.149,109.075,175,64.34C200.625,53.497,228.175,47.939,256,48 M256,32
	C132.29,32,32,132.29,32,256s100.29,224,224,224s224-100.29,224-224S379.71,32,256,32z"/>
</svg>
