<?xml version="1.0" encoding="utf-8"?>
<!-- Generator: Adobe Illustrator 16.0.0, SVG Export Plug-In . SVG Version: 6.00 Build 0)  -->
<!DOCTYPE svg PUBLIC "-//W3C//DTD SVG 1.1//EN" "http://www.w3.org/Graphics/SVG/1.1/DTD/svg11.dtd">
<svg version="1.1" id="Layer_1" xmlns="http://www.w3.org/2000/svg" xmlns:xlink="http://www.w3.org/1999/xlink" x="0px" y="0px"
	 width="196px" height="34px" viewBox="0 0 196 34" enable-background="new 0 0 196 34" xml:space="preserve">
<path fill="#FFFFFF" d="M13.932,7.956c3.264,0,5.664,0.66,7.2,1.98c1.56,1.32,2.34,3.048,2.34,5.184c0,0.72-0.096,1.524-0.288,2.412
	c-0.456,1.968-1.308,3.696-2.556,5.184c-1.248,1.464-2.784,2.604-4.608,3.42c-1.8,0.792-3.756,1.188-5.868,1.188
	c-3.336,0-5.808-0.66-7.416-1.98C1.152,24,0.36,22.225,0.36,20.016c0-0.744,0.096-1.572,0.288-2.483
	c0.456-1.872,1.32-3.528,2.592-4.968C4.536,11.1,6.108,9.972,7.956,9.18C9.828,8.364,11.82,7.956,13.932,7.956z M13.824,11.16
	c-0.504,0-1.044,0.456-1.62,1.368c-0.552,0.888-1.212,2.58-1.98,5.076c-0.768,2.496-1.152,4.248-1.152,5.256
	c0,0.529,0.084,0.889,0.252,1.08c0.168,0.168,0.396,0.252,0.684,0.252c0.504,0.049,1.02-0.383,1.548-1.295
	c0.552-0.912,1.236-2.688,2.052-5.328c0.744-2.328,1.116-4.021,1.116-5.076c0-0.504-0.084-0.852-0.252-1.044
	C14.328,11.256,14.112,11.16,13.824,11.16z"/>
<path fill="#F7F8FC" d="M44.99,22.032c-0.048,0.096-0.072,0.239-0.072,0.432c0,0.168,0.036,0.3,0.108,0.396
	c0.096,0.097,0.216,0.145,0.36,0.145c0.288,0,0.528-0.12,0.72-0.359c0.216-0.265,0.36-0.396,0.432-0.396
	c0.12,0,0.216,0.084,0.288,0.252c0.072,0.145,0.108,0.324,0.108,0.54c0.024,0.696-0.204,1.38-0.684,2.052
	c-0.48,0.648-1.188,1.188-2.124,1.62c-0.912,0.408-2.016,0.612-3.312,0.612c-1.584,0-2.844-0.36-3.78-1.08
	c-0.936-0.744-1.416-1.729-1.44-2.952c0-0.888,0.216-1.884,0.648-2.987l1.98-5.185c0.12-0.312,0.18-0.564,0.18-0.756
	c0-0.313-0.108-0.552-0.324-0.72c-0.192-0.192-0.432-0.288-0.72-0.288c-0.456,0-0.924,0.216-1.404,0.648
	c-0.456,0.408-0.828,1.08-1.116,2.016v-0.072l-2.268,7.308c-0.072,0.288-0.108,0.54-0.108,0.756c0,0.313,0.06,0.564,0.18,0.756
	c0.12,0.168,0.288,0.336,0.504,0.504c0.168,0.168,0.288,0.313,0.36,0.433c0.072,0.096,0.084,0.228,0.036,0.396
	c-0.12,0.313-0.36,0.541-0.72,0.685S31.91,27,31.166,27h-8.208c-0.624,0-1.08-0.096-1.368-0.288
	c-0.288-0.216-0.384-0.491-0.288-0.828c0.096-0.288,0.348-0.54,0.756-0.756c0.36-0.192,0.66-0.42,0.9-0.685
	c0.24-0.264,0.444-0.684,0.612-1.26L29.042,5.22c0.072-0.216,0.108-0.396,0.108-0.54c0-0.264-0.072-0.48-0.216-0.648
	c-0.12-0.168-0.288-0.336-0.504-0.504c-0.24-0.192-0.42-0.36-0.54-0.504c-0.096-0.144-0.108-0.336-0.036-0.576
	c0.144-0.552,0.9-1.032,2.268-1.44c1.368-0.408,2.796-0.612,4.284-0.612c1.392,0,2.412,0.264,3.06,0.792
	c0.672,0.528,1.008,1.248,1.008,2.16c0,0.528-0.084,1.044-0.252,1.548l-1.944,6.336c0.936-1.224,1.92-2.076,2.952-2.556
	c1.056-0.48,2.196-0.72,3.42-0.72c1.464,0,2.64,0.444,3.528,1.332c0.912,0.888,1.368,2.04,1.368,3.456
	c0,0.744-0.12,1.476-0.36,2.196L44.99,22.032z"/>
<path fill="#FFFFFF" d="M82.716,22.032c-0.048,0.096-0.072,0.239-0.072,0.432c0,0.168,0.036,0.3,0.108,0.396
	c0.096,0.097,0.216,0.145,0.36,0.145c0.288,0,0.528-0.12,0.72-0.359c0.216-0.265,0.36-0.396,0.432-0.396
	c0.12,0,0.216,0.084,0.288,0.252c0.072,0.145,0.108,0.324,0.108,0.54c0.024,0.696-0.204,1.38-0.684,2.052
	c-0.48,0.648-1.188,1.188-2.124,1.62c-0.912,0.408-2.016,0.612-3.312,0.612c-1.584,0-2.844-0.36-3.78-1.08
	c-0.936-0.744-1.416-1.729-1.44-2.952c0-0.888,0.216-1.884,0.648-2.987l1.98-5.185c0.12-0.312,0.18-0.564,0.18-0.756
	c0-0.313-0.108-0.552-0.324-0.72c-0.192-0.192-0.432-0.288-0.72-0.288c-0.408,0-0.828,0.18-1.26,0.54
	c-0.432,0.36-0.816,0.924-1.152,1.692l-1.98,6.444c-0.048,0.096-0.072,0.239-0.072,0.432c0,0.168,0.036,0.3,0.108,0.396
	c0.096,0.097,0.216,0.145,0.36,0.145c0.288,0,0.528-0.12,0.72-0.359c0.216-0.265,0.36-0.396,0.432-0.396
	c0.12,0,0.216,0.084,0.288,0.252c0.072,0.145,0.108,0.324,0.108,0.54c0.024,0.696-0.204,1.38-0.684,2.052
	c-0.48,0.648-1.188,1.188-2.124,1.62c-0.912,0.408-2.016,0.612-3.312,0.612c-1.584,0-2.844-0.36-3.78-1.08
	c-0.936-0.744-1.416-1.729-1.44-2.952c0-0.888,0.216-1.884,0.648-2.987l1.98-5.185c0.12-0.312,0.18-0.564,0.18-0.756
	c0-0.313-0.108-0.552-0.324-0.72c-0.192-0.192-0.432-0.288-0.72-0.288c-0.408,0-0.828,0.18-1.26,0.54
	c-0.432,0.336-0.792,0.888-1.08,1.656l-2.376,7.704c-0.096,0.264-0.144,0.516-0.144,0.756c0,0.288,0.06,0.528,0.18,0.721
	c0.12,0.168,0.288,0.348,0.504,0.539c0.168,0.145,0.288,0.276,0.36,0.396c0.072,0.12,0.084,0.264,0.036,0.432
	c-0.096,0.313-0.324,0.541-0.684,0.685C58.236,26.928,57.672,27,56.904,27h-8.208c-0.624,0-1.068-0.096-1.332-0.288
	c-0.288-0.216-0.396-0.491-0.324-0.828c0.096-0.288,0.348-0.54,0.756-0.756c0.36-0.192,0.66-0.42,0.9-0.685
	c0.24-0.264,0.444-0.684,0.612-1.26l3.204-10.404c0.048-0.12,0.072-0.288,0.072-0.504c0-0.264-0.06-0.468-0.18-0.612
	c-0.096-0.144-0.264-0.324-0.504-0.54c-0.24-0.192-0.408-0.36-0.504-0.504s-0.108-0.336-0.036-0.576
	c0.144-0.552,0.9-1.032,2.268-1.44c1.368-0.432,2.796-0.648,4.284-0.648c1.176,0,2.1,0.324,2.772,0.972
	c0.696,0.648,1.032,1.536,1.008,2.664c0.984-1.368,2.016-2.316,3.096-2.844c1.104-0.528,2.292-0.792,3.564-0.792
	c1.392,0,2.52,0.408,3.384,1.224c0.888,0.792,1.38,1.836,1.476,3.132c1.032-1.632,2.136-2.76,3.312-3.384
	c1.176-0.648,2.46-0.972,3.852-0.972c1.464,0,2.64,0.444,3.528,1.332c0.912,0.888,1.368,2.04,1.368,3.456
	c0,0.744-0.12,1.476-0.36,2.196L82.716,22.032z"/>
<path fill="#FFFFFF" d="M104.932,7.956c1.057,0,1.896,0.432,2.521,1.296c0.647,0.84,0.972,1.992,0.972,3.456
	c0,1.272-0.229,2.64-0.684,4.104c-0.889,2.952-2.316,5.736-4.284,8.352c-1.944,2.615-4.188,4.716-6.732,6.3
	c-2.52,1.584-5.04,2.376-7.56,2.376c-1.248,0-2.328-0.216-3.24-0.648c-0.888-0.432-1.56-1.008-2.016-1.728
	c-0.48-0.72-0.72-1.487-0.72-2.304c0-0.36,0.06-0.756,0.18-1.188c0.216-0.673,0.576-1.188,1.08-1.549
	c0.504-0.359,1.104-0.54,1.8-0.54c1.104,0,2.004,0.372,2.7,1.116c0.72,0.768,1.176,1.813,1.368,3.132
	c1.536-0.071,2.952-0.731,4.248-1.979c-1.224-0.217-2.136-0.625-2.736-1.225c-0.576-0.623-0.972-1.584-1.188-2.88l-1.44-8.82
	c-0.072-0.456-0.18-0.768-0.324-0.936c-0.12-0.192-0.288-0.288-0.504-0.288c-0.168,0-0.372,0.084-0.612,0.252
	c-0.216,0.168-0.372,0.252-0.468,0.252c-0.192,0-0.288-0.204-0.288-0.612c0-0.336,0.06-0.696,0.18-1.08
	c0.432-1.368,1.236-2.52,2.412-3.456C90.771,8.4,92.14,7.92,93.7,7.92c1.536,0,2.664,0.456,3.384,1.368
	c0.744,0.912,1.224,2.316,1.44,4.212l1.08,7.92c0.072,0.6,0.288,0.9,0.648,0.9c0.432,0,0.936-0.385,1.512-1.152
	c0.576-0.792,1.141-1.908,1.692-3.348c-0.72-0.648-1.272-1.392-1.656-2.232c-0.384-0.84-0.575-1.74-0.575-2.7
	c0-0.744,0.096-1.416,0.287-2.016c0.288-0.96,0.732-1.68,1.332-2.16C103.468,8.208,104.164,7.956,104.932,7.956z"/>
<path fill="#FFFFFF" d="M122.863,0.396c2.568,0,4.488,0.396,5.761,1.188c1.296,0.768,1.944,1.716,1.944,2.844
	c0,0.912-0.385,1.62-1.152,2.124c-0.744,0.48-1.729,0.72-2.952,0.72c-1.128,0-2.004-0.276-2.628-0.828
	c-0.624-0.552-0.936-1.236-0.936-2.052c0-0.504,0.156-1.032,0.468-1.584c-0.72,0-1.32,0.18-1.8,0.54
	c-0.48,0.336-0.853,0.924-1.116,1.764c-0.144,0.528-0.216,1.02-0.216,1.476c0,0.576,0.096,1.032,0.287,1.368
	c0.217,0.312,0.517,0.468,0.9,0.468h2.124c1.248,0,1.872,0.384,1.872,1.152c0,0.096-0.023,0.24-0.072,0.432
	c-0.144,0.528-0.443,0.924-0.899,1.188c-0.433,0.264-1.093,0.396-1.98,0.396h-1.079l-3.564,11.664
	c-0.072,0.288-0.108,0.54-0.108,0.756c0,0.313,0.06,0.564,0.181,0.756c0.119,0.168,0.287,0.336,0.504,0.504
	c0.168,0.168,0.287,0.313,0.359,0.433c0.072,0.096,0.084,0.228,0.036,0.396c-0.12,0.313-0.36,0.541-0.72,0.685
	c-0.36,0.144-0.912,0.216-1.656,0.216h-8.208c-0.624,0-1.08-0.096-1.368-0.288c-0.287-0.216-0.384-0.491-0.287-0.828
	c0.096-0.288,0.348-0.54,0.756-0.756c0.359-0.192,0.66-0.42,0.899-0.685c0.24-0.264,0.444-0.684,0.612-1.26l2.808-9.216
	c0.12-0.36,0.181-0.732,0.181-1.116c0-0.48-0.108-0.852-0.324-1.116c-0.192-0.288-0.492-0.6-0.9-0.936
	c-0.264-0.216-0.468-0.396-0.611-0.54c-0.121-0.168-0.181-0.36-0.181-0.576c-0.024-0.456,0.132-0.78,0.468-0.972
	c0.36-0.192,1.032-0.288,2.016-0.288h0.9c-0.168-0.6-0.252-1.2-0.252-1.8s0.108-1.224,0.324-1.872
	c0.456-1.224,1.428-2.256,2.916-3.096C117.68,0.816,119.912,0.396,122.863,0.396z"/>
<path fill="#FFFFFF" d="M137.084,7.956c3.264,0,5.664,0.66,7.2,1.98c1.56,1.32,2.34,3.048,2.34,5.184
	c0,0.72-0.097,1.524-0.288,2.412c-0.456,1.968-1.309,3.696-2.557,5.184c-1.247,1.464-2.783,2.604-4.607,3.42
	c-1.8,0.792-3.756,1.188-5.867,1.188c-3.337,0-5.809-0.66-7.416-1.98c-1.584-1.344-2.377-3.119-2.377-5.328
	c0-0.744,0.096-1.572,0.288-2.483c0.456-1.872,1.32-3.528,2.593-4.968c1.295-1.464,2.867-2.592,4.715-3.384
	C132.98,8.364,134.973,7.956,137.084,7.956z M136.977,11.16c-0.504,0-1.045,0.456-1.621,1.368c-0.551,0.888-1.211,2.58-1.979,5.076
	c-0.769,2.496-1.151,4.248-1.151,5.256c0,0.529,0.084,0.889,0.252,1.08c0.168,0.168,0.396,0.252,0.684,0.252
	c0.504,0.049,1.02-0.383,1.548-1.295c0.552-0.912,1.235-2.688,2.052-5.328c0.744-2.328,1.116-4.021,1.116-5.076
	c0-0.504-0.084-0.852-0.252-1.044C137.48,11.256,137.264,11.16,136.977,11.16z"/>
<path fill="#FFFFFF" d="M160.709,7.956c3.264,0,5.664,0.66,7.2,1.98c1.56,1.32,2.34,3.048,2.34,5.184
	c0,0.72-0.097,1.524-0.288,2.412c-0.456,1.968-1.309,3.696-2.557,5.184c-1.247,1.464-2.783,2.604-4.607,3.42
	c-1.8,0.792-3.756,1.188-5.867,1.188c-3.337,0-5.809-0.66-7.416-1.98c-1.584-1.344-2.377-3.119-2.377-5.328
	c0-0.744,0.096-1.572,0.288-2.483c0.456-1.872,1.32-3.528,2.593-4.968c1.295-1.464,2.867-2.592,4.715-3.384
	C156.605,8.364,158.598,7.956,160.709,7.956z M160.602,11.16c-0.504,0-1.045,0.456-1.621,1.368c-0.551,0.888-1.211,2.58-1.979,5.076
	c-0.769,2.496-1.151,4.248-1.151,5.256c0,0.529,0.084,0.889,0.252,1.08c0.168,0.168,0.396,0.252,0.684,0.252
	c0.504,0.049,1.02-0.383,1.548-1.295c0.552-0.912,1.235-2.688,2.052-5.328c0.744-2.328,1.116-4.021,1.116-5.076
	c0-0.504-0.084-0.852-0.252-1.044C161.105,11.256,160.889,11.16,160.602,11.16z"/>
<path fill="#FFFFFF" d="M190.525,21.816c-0.047,0.191-0.071,0.324-0.071,0.396c0,0.168,0.048,0.3,0.144,0.396
	c0.096,0.097,0.217,0.145,0.36,0.145c0.288,0,0.528-0.12,0.72-0.359c0.217-0.265,0.36-0.396,0.432-0.396
	c0.121,0,0.217,0.084,0.289,0.252s0.107,0.359,0.107,0.576c0.023,0.648-0.229,1.308-0.756,1.98
	c-0.504,0.672-1.188,1.223-2.052,1.655s-1.8,0.647-2.808,0.647c-1.201,0-2.244-0.228-3.133-0.684c-0.888-0.456-1.5-1.056-1.836-1.8
	c-0.648,0.84-1.393,1.464-2.232,1.872s-1.728,0.611-2.664,0.611c-1.104,0-2.135-0.275-3.096-0.828
	c-0.936-0.551-1.691-1.331-2.268-2.34c-0.553-1.031-0.828-2.195-0.828-3.491c0-2.185,0.408-4.236,1.225-6.156
	c0.84-1.944,2.004-3.504,3.491-4.68c1.488-1.2,3.181-1.8,5.076-1.8c1.032,0,1.908,0.12,2.628,0.36c0.744,0.24,1.416,0.6,2.016,1.08
	l1.225-4.032c0.072-0.216,0.107-0.396,0.107-0.54c0-0.264-0.072-0.48-0.215-0.648c-0.121-0.168-0.289-0.336-0.505-0.504
	c-0.239-0.192-0.42-0.36-0.54-0.504c-0.096-0.144-0.107-0.336-0.035-0.576c0.144-0.552,0.899-1.032,2.268-1.44
	c1.367-0.408,2.796-0.612,4.283-0.612c1.393,0,2.412,0.264,3.061,0.792c0.672,0.528,1.008,1.248,1.008,2.16
	c0,0.528-0.084,1.044-0.252,1.548L190.525,21.816z M184.514,11.7c-0.384-0.336-0.804-0.504-1.26-0.504
	c-0.695,0-1.38,0.516-2.052,1.548c-0.673,1.032-1.212,2.28-1.62,3.744c-0.408,1.464-0.6,2.784-0.576,3.96
	c0,1.319,0.432,1.979,1.296,1.979c0.312,0,0.576-0.119,0.792-0.359c0.217-0.264,0.42-0.685,0.612-1.26L184.514,11.7z"/>
</svg>
